<?xml version="1.0" encoding="UTF-8" standalone="no"?>
<!-- Created with Inkscape (http://www.inkscape.org/) -->

<svg
   xmlns:dc="http://purl.org/dc/elements/1.1/"
   xmlns:cc="http://creativecommons.org/ns#"
   xmlns:rdf="http://www.w3.org/1999/02/22-rdf-syntax-ns#"
   xmlns:svg="http://www.w3.org/2000/svg"
   xmlns="http://www.w3.org/2000/svg"
   xmlns:sodipodi="http://sodipodi.sourceforge.net/DTD/sodipodi-0.dtd"
   xmlns:inkscape="http://www.inkscape.org/namespaces/inkscape"
   width="744.09448819"
   height="1052.3622047"
   id="svg2"
   version="1.1"
   inkscape:version="0.48.4 r9939"
   sodipodi:docname="page10.svg">
  <defs
     id="defs4" />
  <sodipodi:namedview
     id="base"
     pagecolor="#ffffff"
     bordercolor="#666666"
     borderopacity="1.0"
     inkscape:pageopacity="0.0"
     inkscape:pageshadow="2"
     inkscape:zoom="0.7"
     inkscape:cx="170.71588"
     inkscape:cy="660.11741"
     inkscape:document-units="px"
     inkscape:current-layer="layer1"
     showgrid="true"
     inkscape:window-width="1920"
     inkscape:window-height="1030"
     inkscape:window-x="0"
     inkscape:window-y="0"
     inkscape:window-maximized="1">
    <inkscape:grid
       type="xygrid"
       id="grid2999"
       empspacing="5"
       visible="true"
       enabled="true"
       snapvisiblegridlinesonly="true" />
  </sodipodi:namedview>
  <metadata
     id="metadata7">
    <rdf:RDF>
      <cc:Work
         rdf:about="">
        <dc:format>image/svg+xml</dc:format>
        <dc:type
           rdf:resource="http://purl.org/dc/dcmitype/StillImage" />
        <dc:title></dc:title>
      </cc:Work>
    </rdf:RDF>
  </metadata>
  <g
     inkscape:label="Layer 1"
     inkscape:groupmode="layer"
     id="layer1">
    <flowRoot
       xml:space="preserve"
       id="flowRoot2987"
       style="font-size:14px;font-style:normal;font-variant:normal;font-weight:normal;font-stretch:normal;line-height:125%;letter-spacing:0px;word-spacing:0px;fill:#000000;fill-opacity:1;stroke:none;font-family:Andika;-inkscape-font-specification:Andika"
       transform="translate(121.40625,2.3134326)"><flowRegion
         id="flowRegion2989"><rect
           id="rect2991"
           width="265.16507"
           height="41.668789"
           x="101.01525"
           y="927.35583" /></flowRegion><flowPara
         id="flowPara2993"
         style="font-style:normal;font-variant:normal;font-weight:normal;font-stretch:normal;text-align:center;text-anchor:middle;font-family:EB Garamond;-inkscape-font-specification:EB Garamond">Brewery Instructions</flowPara><flowPara
         id="flowPara2997"
         style="font-style:normal;font-variant:normal;font-weight:normal;font-stretch:normal;text-align:center;text-anchor:middle;font-family:EB Garamond;-inkscape-font-specification:EB Garamond">Page 10</flowPara><flowPara
         id="flowPara2995"
         style="font-style:normal;font-variant:normal;font-weight:normal;font-stretch:normal;text-align:center;text-anchor:middle;font-family:EB Garamond;-inkscape-font-specification:EB Garamond">Page</flowPara></flowRoot>    <flowRoot
       xml:space="preserve"
       id="flowRoot3003"
       style="font-size:14px;font-style:normal;font-variant:normal;font-weight:normal;font-stretch:normal;line-height:125%;letter-spacing:0px;word-spacing:0px;fill:#000000;fill-opacity:1;stroke:none;font-family:Andika;-inkscape-font-specification:Andika"><flowRegion
         id="flowRegion3005"><rect
           id="rect3007"
           width="621.42859"
           height="77.14286"
           x="58.57143"
           y="55.219326" /></flowRegion><flowPara
         id="flowPara3009"
         style="font-size:56px">Clean</flowPara></flowRoot>    <flowRoot
       xml:space="preserve"
       id="flowRoot3011"
       style="font-size:14px;font-style:normal;font-variant:normal;font-weight:normal;font-stretch:normal;line-height:125%;letter-spacing:0px;word-spacing:0px;fill:#000000;fill-opacity:1;stroke:none;font-family:Andika;-inkscape-font-specification:Andika"><flowRegion
         id="flowRegion3013"><rect
           id="rect3015"
           width="621.42859"
           height="407.14285"
           x="58.57143"
           y="155.21933" /></flowRegion><flowPara
         id="flowPara11325">Remove all the washed grain from the keg. </flowPara><flowPara
         id="flowPara11904">Spray the urn, keg and pot with water and rub any deposits off with a paper towel. </flowPara><flowPara
         id="flowPara11906">Add 10 L of water  back to the urn and heat it to boiling again. </flowPara><flowPara
         id="flowPara11908">When boiled, add some &quot;keg and line cleaner&quot;. </flowPara><flowPara
         id="flowPara11910">Connect the pump to the tap on the urn with the out hose going to the keg. </flowPara><flowPara
         id="flowPara11912">Open the tap on the urn and turn on the pump to move all the water to the keg (with the keg tap closed). </flowPara><flowPara
         id="flowPara11914">Put any used hoses, spoons etc in the keg and make sure they get submerged. </flowPara><flowPara
         id="flowPara11916">When all the water is in the keg, open the tap and let it flow into the pot.</flowPara><flowPara
         id="flowPara12205">Finally give everything a final spray with water and dry with a tea towel. </flowPara><flowPara
         id="flowPara11323" /></flowRoot>    <path
       style="fill:none;stroke:#000000;stroke-width:3;stroke-linecap:round;stroke-linejoin:miter;stroke-opacity:1;stroke-miterlimit:4;stroke-dasharray:none"
       d="m 60,912.36218 620,0"
       id="path3043"
       inkscape:connector-curvature="0" />
    <path
       inkscape:connector-curvature="0"
       id="path3047"
       d="m 180,132.36218 380,0"
       style="fill:none;stroke:#000000;stroke-width:3;stroke-linecap:round;stroke-linejoin:miter;stroke-opacity:1;stroke-miterlimit:4;stroke-dasharray:none"
       sodipodi:nodetypes="cc" />
    <path
       style="fill:none;stroke:#000000;stroke-width:11.03686428;stroke-linecap:butt;stroke-linejoin:miter;stroke-miterlimit:4;stroke-opacity:1;stroke-dasharray:none"
       d="m 107.35342,694.4722 532.64658,0"
       id="path3930"
       inkscape:connector-curvature="0"
       sodipodi:nodetypes="cc" />
    <path
       style="fill:none;stroke:#000000;stroke-width:11.03686428;stroke-linecap:butt;stroke-linejoin:miter;stroke-miterlimit:4;stroke-opacity:1;stroke-dasharray:none"
       d="m 580,694.4722 0,176.58982"
       id="path3932"
       inkscape:connector-curvature="0"
       sodipodi:nodetypes="cc" />
    <path
       style="fill:none;stroke:#000000;stroke-width:11.03686428;stroke-linecap:butt;stroke-linejoin:miter;stroke-miterlimit:4;stroke-opacity:1;stroke-dasharray:none"
       d="m 162.53775,694.4722 0,176.58982"
       id="path3934"
       inkscape:connector-curvature="0"
       sodipodi:nodetypes="cc" />
    <rect
       style="fill:#5b8bff;fill-opacity:0.20930236;stroke:none"
       id="rect5029"
       width="65.647644"
       height="28.20813"
       x="135"
       y="633.79077"
       ry="0" />
    <g
       id="layer1-3"
       inkscape:label="Layer 1"
       transform="matrix(0.2,0,0,0.2,113.27109,560.03215)">
      <path
         sodipodi:nodetypes="cssssc"
         inkscape:connector-curvature="0"
         id="rect2985"
         d="m 435.71427,155.21932 0,428.57143 c 0,18.99428 -15.29143,34.28571 -34.28571,34.28571 l -262.85713,0 c -18.99429,0 -34.28572,-15.29143 -34.28572,-34.28571 l 0,-428.57143"
         style="fill:none;stroke:#000000;stroke-width:20;stroke-miterlimit:4;stroke-opacity:1;stroke-dashoffset:0" />
      <path
         transform="translate(-47.142857,2.8571429)"
         d="m 294.28572,549.50507 c 0,10.25671 -8.31471,18.57142 -18.57143,18.57142 -10.25671,0 -18.57142,-8.31471 -18.57142,-18.57142 0,-10.25672 8.31471,-18.57143 18.57142,-18.57143 10.25672,0 18.57143,8.31471 18.57143,18.57143 z"
         sodipodi:ry="18.571428"
         sodipodi:rx="18.571428"
         sodipodi:cy="549.50507"
         sodipodi:cx="275.71429"
         id="path3756"
         style="fill:#000000;fill-opacity:1;stroke:#000000;stroke-width:20;stroke-miterlimit:4;stroke-opacity:1;stroke-dasharray:none;stroke-dashoffset:0"
         sodipodi:type="arc" />
      <path
         transform="translate(-110,-90)"
         sodipodi:type="arc"
         style="fill:none;stroke:#000000;stroke-width:2;stroke-miterlimit:4;stroke-opacity:1;stroke-dasharray:none;stroke-dashoffset:0"
         id="path3758"
         sodipodi:cx="275.71429"
         sodipodi:cy="549.50507"
         sodipodi:rx="18.571428"
         sodipodi:ry="18.571428"
         d="m 294.28572,549.50507 c 0,10.25671 -8.31471,18.57142 -18.57143,18.57142 -10.25671,0 -18.57142,-8.31471 -18.57142,-18.57142 0,-10.25672 8.31471,-18.57143 18.57142,-18.57143 10.25672,0 18.57143,8.31471 18.57143,18.57143 z" />
      <path
         inkscape:connector-curvature="0"
         id="path3760"
         d="m 107.14286,509.50504 330,0"
         style="fill:none;stroke:#000000;stroke-width:4;stroke-linecap:butt;stroke-linejoin:miter;stroke-miterlimit:4;stroke-opacity:1;stroke-dasharray:none" />
      <path
         inkscape:connector-curvature="0"
         id="path3762"
         d="M 165.66502,459.1501 154.55334,447.78588"
         style="fill:none;stroke:#000000;stroke-width:1px;stroke-linecap:butt;stroke-linejoin:miter;stroke-opacity:1" />
      <path
         inkscape:connector-curvature="0"
         id="path3764"
         d="m 228.57143,552.54075 10.53571,-19.82143"
         style="fill:none;stroke:#ffffff;stroke-width:1px;stroke-linecap:butt;stroke-linejoin:miter;stroke-opacity:1" />
      <path
         sodipodi:nodetypes="csc"
         inkscape:connector-curvature="0"
         id="path3768"
         d="m 435.37575,450.31127 c 0,0 29.04311,0.66724 53.08621,0.87955 19.08775,0.16856 17.37193,15.684 18.08622,29.57859"
         style="fill:none;stroke:#000000;stroke-width:10;stroke-linecap:butt;stroke-linejoin:miter;stroke-miterlimit:4;stroke-opacity:1;stroke-dasharray:none" />
      <path
         inkscape:connector-curvature="0"
         id="path3774"
         d="m 471.42857,454.50504 0,-35 52.14286,0"
         style="fill:none;stroke:#000000;stroke-width:4;stroke-linecap:butt;stroke-linejoin:miter;stroke-miterlimit:4;stroke-opacity:1;stroke-dasharray:none" />
    </g>
    <g
       id="layer1-6"
       inkscape:label="Layer 1"
       transform="matrix(0.2,0,0,0.2,96.254754,504.06218)">
      <path
         inkscape:connector-curvature="0"
         id="path3847"
         d="m 210.61681,592.74277 c 33.33503,-104.55078 131.8249,-104.04571 136.87567,-113.13708 5.05076,-9.09137 4.04061,-27.27412 4.04061,-27.27412 l 0,-59.09392"
         style="fill:none;stroke:#000000;stroke-width:10;stroke-linecap:butt;stroke-linejoin:miter;stroke-miterlimit:4;stroke-opacity:1;stroke-dasharray:none" />
      <path
         sodipodi:nodetypes="cc"
         inkscape:connector-curvature="0"
         id="path3849"
         d="m 375,755.12418 0,-362.762"
         style="fill:none;stroke:#000000;stroke-width:10;stroke-linecap:butt;stroke-linejoin:miter;stroke-miterlimit:4;stroke-opacity:1;stroke-dasharray:none" />
      <path
         inkscape:connector-curvature="0"
         id="path3851"
         d="m 211.96429,588.79075 c 0,0 -8.57143,17.85715 8.57142,19.28572 17.14286,1.42857 285,30 285,30"
         style="fill:none;stroke:#000000;stroke-width:10;stroke-linecap:butt;stroke-linejoin:miter;stroke-miterlimit:4;stroke-opacity:1;stroke-dasharray:none" />
      <path
         style="fill:none;stroke:#000000;stroke-width:10;stroke-linecap:butt;stroke-linejoin:miter;stroke-miterlimit:4;stroke-opacity:1;stroke-dasharray:none"
         d="m 211.96429,606.9735 c 0,0 -8.57143,17.85715 8.57142,19.28572 17.14286,1.42857 285,30 285,30"
         id="path3853"
         inkscape:connector-curvature="0" />
      <path
         inkscape:connector-curvature="0"
         id="path3855"
         d="m 211.96429,625.66132 c 0,0 -8.57143,17.85715 8.57142,19.28572 17.14286,1.42857 285,30 285,30"
         style="fill:none;stroke:#000000;stroke-width:10;stroke-linecap:butt;stroke-linejoin:miter;stroke-miterlimit:4;stroke-opacity:1;stroke-dasharray:none" />
      <path
         style="fill:none;stroke:#000000;stroke-width:10;stroke-linecap:butt;stroke-linejoin:miter;stroke-miterlimit:4;stroke-opacity:1;stroke-dasharray:none"
         d="m 211.96429,644.85422 c 0,0 -8.57143,17.85715 8.57142,19.28572 17.14286,1.42857 285,30 285,30"
         id="path3857"
         inkscape:connector-curvature="0" />
      <path
         inkscape:connector-curvature="0"
         id="path3859"
         d="m 211.96429,664.04712 c 0,0 -8.57143,17.85715 8.57142,19.28572 17.14286,1.42857 285,30 285,30"
         style="fill:none;stroke:#000000;stroke-width:10;stroke-linecap:butt;stroke-linejoin:miter;stroke-miterlimit:4;stroke-opacity:1;stroke-dasharray:none" />
      <path
         style="fill:none;stroke:#000000;stroke-width:10;stroke-linecap:butt;stroke-linejoin:miter;stroke-miterlimit:4;stroke-opacity:1;stroke-dasharray:none"
         d="m 211.96429,682.73494 c 0,0 -8.57143,17.85715 8.57142,19.28572 17.14286,1.42857 285,30 285,30"
         id="path3861"
         inkscape:connector-curvature="0" />
      <path
         inkscape:connector-curvature="0"
         id="path3863"
         d="m 211.96429,701.42276 c 0,0 -8.57143,17.85715 8.57142,19.28572 17.14286,1.42857 285,30 285,30"
         style="fill:none;stroke:#000000;stroke-width:10;stroke-linecap:butt;stroke-linejoin:miter;stroke-miterlimit:4;stroke-opacity:1;stroke-dasharray:none" />
      <path
         style="fill:none;stroke:#000000;stroke-width:10;stroke-linecap:butt;stroke-linejoin:miter;stroke-miterlimit:4;stroke-opacity:1;stroke-dasharray:none"
         d="m 211.96429,721.12073 c 0,0 -8.57143,17.85715 8.57142,19.28572 17.14286,1.42857 285,30 285,30"
         id="path3865"
         inkscape:connector-curvature="0" />
      <path
         sodipodi:nodetypes="cc"
         inkscape:connector-curvature="0"
         id="path3867"
         d="m 503.39286,637.36218 -0.71429,133.92857"
         style="fill:none;stroke:#000000;stroke-width:10;stroke-linecap:round;stroke-linejoin:miter;stroke-miterlimit:4;stroke-opacity:1;stroke-dasharray:none" />
    </g>
    <path
       style="fill:#5b8bff;fill-opacity:0.20930236;stroke:none"
       d="m 350,612.36218 90,0 c 0,0 6.06339,46.36197 0,50 -25,15 -60,15 -91.22647,-1.62597 C 344.30541,658.35724 350,612.36218 350,612.36218 z"
       id="rect12196"
       inkscape:connector-curvature="0"
       sodipodi:nodetypes="ccssc" />
    <g
       id="layer1-69"
       inkscape:label="Layer 1"
       transform="matrix(0.2,0,0,0.2,323.87725,512.39606)">
      <path
         sodipodi:nodetypes="cssssc"
         inkscape:connector-curvature="0"
         id="rect2985-2"
         d="m 581.17624,173.40207 0,625.71429 c 0,18.99428 -15.29143,34.28571 -34.28571,34.28571 l -384.2857,0 c -18.9943,0 -34.28572,-15.29143 -34.28572,-34.28571 l 0,-625.71429"
         style="fill:none;stroke:#000000;stroke-width:20;stroke-miterlimit:4;stroke-opacity:1;stroke-dashoffset:0" />
      <path
         sodipodi:nodetypes="cc"
         inkscape:connector-curvature="0"
         id="path3760-5"
         d="m 132.60483,226.66233 43.11668,0"
         style="fill:none;stroke:#000000;stroke-width:4;stroke-linecap:butt;stroke-linejoin:miter;stroke-miterlimit:4;stroke-opacity:1;stroke-dasharray:none" />
      <path
         sodipodi:nodetypes="csc"
         inkscape:connector-curvature="0"
         id="path3768-1"
         d="m 581.28415,719.20831 c 0,0 29.04311,0.66724 53.08621,0.87955 19.08775,0.16856 17.37193,15.684 18.08622,29.57859"
         style="fill:none;stroke:#000000;stroke-width:10;stroke-linecap:butt;stroke-linejoin:miter;stroke-miterlimit:4;stroke-opacity:1;stroke-dasharray:none" />
      <path
         inkscape:connector-curvature="0"
         id="path3774-8"
         d="m 617.33697,723.40208 0,-35 52.14286,0"
         style="fill:none;stroke:#000000;stroke-width:4;stroke-linecap:butt;stroke-linejoin:miter;stroke-miterlimit:4;stroke-opacity:1;stroke-dasharray:none" />
      <path
         style="fill:none;stroke:#000000;stroke-width:4;stroke-linecap:butt;stroke-linejoin:miter;stroke-miterlimit:4;stroke-opacity:1;stroke-dasharray:none"
         d="m 532.96197,226.66233 43.11668,0"
         id="path3795"
         inkscape:connector-curvature="0"
         sodipodi:nodetypes="cc" />
      <path
         inkscape:connector-curvature="0"
         id="path3797"
         d="m 126.89054,744.83065 c 0,0 147.27192,64.3251 240.06453,64.3251 92.79261,0 214.61949,-57.50712 214.61949,-57.50712"
         style="fill:none;stroke:#000000;stroke-width:5;stroke-linecap:butt;stroke-linejoin:miter;stroke-miterlimit:4;stroke-opacity:1;stroke-dasharray:none" />
      <path
         inkscape:connector-curvature="0"
         id="path3799"
         d="m 174.0334,761.9735 c 0,0 97.14286,-17.14285 178.57143,-16.42857 81.42857,0.71429 181.42857,25 181.42857,25"
         style="fill:none;stroke:#000000;stroke-width:4;stroke-linecap:butt;stroke-linejoin:miter;stroke-miterlimit:4;stroke-opacity:1;stroke-dasharray:4, 4;stroke-dashoffset:0" />
      <path
         sodipodi:nodetypes="csc"
         inkscape:connector-curvature="0"
         id="path3801"
         d="m 351.44411,743.66994 c 0,0 -0.73902,-17.78913 2.58929,-20.98215 3.66231,-3.51345 21.51786,-2.97991 21.51786,-2.97991"
         style="fill:none;stroke:#000000;stroke-width:10;stroke-linecap:butt;stroke-linejoin:miter;stroke-miterlimit:4;stroke-opacity:1;stroke-dasharray:none" />
      <path
         sodipodi:nodetypes="cc"
         inkscape:connector-curvature="0"
         id="path3803"
         d="m 373.65088,719.68457 197.50557,-0.25254"
         style="fill:none;stroke:#c3c3c3;stroke-width:10;stroke-linecap:butt;stroke-linejoin:miter;stroke-miterlimit:4;stroke-opacity:1;stroke-dasharray:none" />
    </g>
    <g
       id="layer1-1"
       inkscape:label="Layer 1"
       transform="matrix(0.2,0,0,0.2,203.03157,531.50759)">
      <rect
         rx="12.121831"
         ry="34.285713"
         y="653.35193"
         x="285.87317"
         height="72.73098"
         width="210.11172"
         id="rect3888"
         style="fill:none;stroke:#000000;stroke-width:10;stroke-linecap:round;stroke-miterlimit:4;stroke-opacity:1;stroke-dasharray:none;stroke-dashoffset:0" />
      <path
         sodipodi:nodetypes="cc"
         inkscape:connector-curvature="0"
         id="path3890"
         d="m 444.71966,664.71614 c 6.06091,11.8693 -3.283,26.51651 -3.283,26.51651"
         style="fill:none;stroke:#000000;stroke-width:1px;stroke-linecap:butt;stroke-linejoin:miter;stroke-opacity:1" />
      <path
         style="fill:none;stroke:#000000;stroke-width:1px;stroke-linecap:butt;stroke-linejoin:miter;stroke-opacity:1"
         d="m 427.786,667.94129 c 12.11121,5.56179 13.85142,22.84823 13.85142,22.84823"
         id="path3892"
         inkscape:connector-curvature="0"
         sodipodi:nodetypes="cc" />
      <path
         sodipodi:nodetypes="cc"
         inkscape:connector-curvature="0"
         id="path3894"
         d="m 417.92249,678.10679 c 13.29076,-0.98518 23.16976,13.30658 23.16976,13.30658"
         style="fill:none;stroke:#000000;stroke-width:1px;stroke-linecap:butt;stroke-linejoin:miter;stroke-opacity:1" />
      <path
         style="fill:none;stroke:#000000;stroke-width:1px;stroke-linecap:butt;stroke-linejoin:miter;stroke-opacity:1"
         d="m 414.54222,695.06487 c 9.80769,-9.02353 26.42499,-3.95258 26.42499,-3.95258"
         id="path3896"
         inkscape:connector-curvature="0"
         sodipodi:nodetypes="cc" />
      <path
         sodipodi:nodetypes="cc"
         inkscape:connector-curvature="0"
         id="path3898"
         d="m 423.34214,710.50272 c 2.10652,-13.15969 18.29134,-19.47639 18.29134,-19.47639"
         style="fill:none;stroke:#000000;stroke-width:1px;stroke-linecap:butt;stroke-linejoin:miter;stroke-opacity:1" />
      <path
         style="fill:none;stroke:#000000;stroke-width:1px;stroke-linecap:butt;stroke-linejoin:miter;stroke-opacity:1"
         d="m 441.00019,717.40301 c -7.2015,-11.21398 0.65292,-26.71099 0.65292,-26.71099"
         id="path3900"
         inkscape:connector-curvature="0"
         sodipodi:nodetypes="cc" />
      <path
         sodipodi:nodetypes="cc"
         inkscape:connector-curvature="0"
         id="path3902"
         d="m 458.31735,712.07546 c -12.69119,-4.06802 -16.49351,-21.02065 -16.49351,-21.02065"
         style="fill:none;stroke:#000000;stroke-width:1px;stroke-linecap:butt;stroke-linejoin:miter;stroke-opacity:1" />
      <path
         style="fill:none;stroke:#000000;stroke-width:1px;stroke-linecap:butt;stroke-linejoin:miter;stroke-opacity:1"
         d="m 467.67871,696.53806 c -12.35652,4.99314 -26.12485,-5.60321 -26.12485,-5.60321"
         id="path3904"
         inkscape:connector-curvature="0"
         sodipodi:nodetypes="cc" />
      <path
         sodipodi:nodetypes="cc"
         inkscape:connector-curvature="0"
         id="path3906"
         d="m 463.54449,675.10077 c -4.35529,12.59549 -21.38993,16.0117 -21.38993,16.0117"
         style="fill:none;stroke:#000000;stroke-width:1px;stroke-linecap:butt;stroke-linejoin:miter;stroke-opacity:1" />
      <path
         transform="translate(4.5456865,3.2829958)"
         d="m 437.39606,688.07593 c 0,0.48815 -0.39573,0.88388 -0.88388,0.88388 -0.48816,0 -0.88389,-0.39573 -0.88389,-0.88388 0,-0.48816 0.39573,-0.88389 0.88389,-0.88389 0.48815,0 0.88388,0.39573 0.88388,0.88389 z"
         sodipodi:ry="0.88388348"
         sodipodi:rx="0.88388348"
         sodipodi:cy="688.07593"
         sodipodi:cx="436.51218"
         id="path3908"
         style="fill:none;stroke:#000000;stroke-width:10;stroke-linecap:round;stroke-miterlimit:4;stroke-opacity:1;stroke-dasharray:none;stroke-dashoffset:0"
         sodipodi:type="arc" />
      <path
         inkscape:connector-curvature="0"
         id="path3910"
         d="m 462.14479,653.09939 -0.25254,-27.7792"
         style="fill:none;stroke:#000000;stroke-width:10;stroke-linecap:butt;stroke-linejoin:miter;stroke-miterlimit:4;stroke-opacity:1;stroke-dasharray:none" />
      <path
         style="fill:none;stroke:#000000;stroke-width:10;stroke-linecap:butt;stroke-linejoin:miter;stroke-miterlimit:4;stroke-opacity:1;stroke-dasharray:none"
         d="m 498.88908,689.33861 27.7792,-0.25254"
         id="path3912"
         inkscape:connector-curvature="0" />
    </g>
    <g
       id="layer1-63"
       inkscape:label="Layer 1"
       transform="matrix(0.2,0,0,0.2,417.44868,610.39575)">
      <path
         sodipodi:nodetypes="cssssc"
         inkscape:connector-curvature="0"
         id="rect2985-7"
         d="m 581.17624,514.83363 0,284.28273 c 0,18.99428 -15.29143,34.28571 -34.28571,34.28571 l -384.2857,0 c -18.9943,0 -34.28572,-15.29143 -34.28572,-34.28571 l 0,-284.28273"
         style="fill:none;stroke:#000000;stroke-width:20;stroke-miterlimit:4;stroke-opacity:1;stroke-dashoffset:0" />
      <path
         sodipodi:nodetypes="csc"
         inkscape:connector-curvature="0"
         id="path3768-13"
         d="m 581.28415,777.79716 c 0,0 29.04311,0.66724 53.08621,0.87955 19.08775,0.16856 17.37193,15.684 18.08622,29.57859"
         style="fill:none;stroke:#000000;stroke-width:10;stroke-linecap:butt;stroke-linejoin:miter;stroke-miterlimit:4;stroke-opacity:1;stroke-dasharray:none" />
      <path
         inkscape:connector-curvature="0"
         id="path3774-4"
         d="m 617.33697,781.99093 0,-35 52.14286,0"
         style="fill:none;stroke:#000000;stroke-width:4;stroke-linecap:butt;stroke-linejoin:miter;stroke-miterlimit:4;stroke-opacity:1;stroke-dasharray:none" />
    </g>
    <rect
       style="fill:none;stroke:#000000;stroke-width:4;stroke-linecap:round;stroke-miterlimit:4;stroke-opacity:1;stroke-dasharray:none;stroke-dashoffset:0"
       id="rect12188"
       width="70"
       height="60"
       x="454.28571"
       y="793.79077" />
    <path
       style="fill:none;stroke:#828282;stroke-width:4;stroke-linecap:butt;stroke-linejoin:miter;stroke-opacity:1;stroke-miterlimit:4;stroke-dasharray:none"
       d="m 454,662.36218 0,58"
       id="path12190"
       inkscape:connector-curvature="0" />
    <path
       style="fill:none;stroke:#7a7a7a;stroke-width:4;stroke-linecap:butt;stroke-linejoin:miter;stroke-opacity:1;stroke-miterlimit:4;stroke-dasharray:none"
       d="m 308,669.36218 c 6,0 10,3 10,7 0,4 -14,10 -22,9 -8,-1 -50.85714,1.44643 -57,-1 -6.14286,-2.44643 -25,-7.86751 -25,-14.43375 0,-6.56625 0,-13.56625 0,-13.56625"
       id="path12192"
       inkscape:connector-curvature="0" />
    <path
       style="fill:none;stroke:#7d7d7d;stroke-width:4;stroke-linecap:butt;stroke-linejoin:miter;stroke-opacity:1;stroke-miterlimit:4;stroke-dasharray:none"
       d="m 295,657.36218 c 0,-2 0,-70 0,-90 0,-20 5,-45 25,-45 20,0 45,0 45,35"
       id="path12194"
       inkscape:connector-curvature="0" />
    <rect
       ry="7.5685425"
       y="739.79364"
       x="443.91727"
       height="37.568542"
       width="91.082733"
       id="rect12199"
       style="fill:#5b8bff;fill-opacity:0.20930236;stroke:none" />
    <path
       style="fill:none;stroke:#868686;stroke-width:4;stroke-linecap:butt;stroke-linejoin:miter;stroke-opacity:1;stroke-miterlimit:4;stroke-dasharray:none"
       d="m 360,617.36218 c 0,20 15,20 25,20"
       id="path12201"
       inkscape:connector-curvature="0" />
    <path
       style="fill:none;stroke:#000000;stroke-width:4;stroke-linecap:butt;stroke-linejoin:miter;stroke-opacity:1;stroke-miterlimit:4;stroke-dasharray:none"
       d="m 415,552.36218 0,75 -5,0 0,15 10,0 0,-15 -5,0"
       id="path12203"
       inkscape:connector-curvature="0" />
  </g>
</svg>
